<?xml version="1.0" encoding="UTF-8"?>
<svg xmlns="http://www.w3.org/2000/svg" viewBox="0 0 462.22 207.07">
  <g fill="#ffffff">
    <polygon points="169.82 48.41 219.58 48.41 182.04 99.21 132.28 99.21 169.82 48.41"></polygon>
    <polygon points="256.63 0 206.87 0 280.18 99.21 329.94 99.21 256.63 0"></polygon>
    <polygon points="219.58 48.41 169.82 48.41 207.36 99.21 257.12 99.21 219.58 48.41"></polygon>
  </g>
  <g fill="#ffffff">
    <path d="M15.83,149.36v15.31h34.33v14.39H15.83v27.85H0v-71.95h54.78v14.39H15.83Z"></path>
    <path d="M77.7,206.92v-71.95h54.27v14.08h-38.54v14.59h33.92v14.08h-33.92v15.11h39.06v14.08h-54.78Z"></path>
    <path d="M210.4,206.92l-6.58-16.14h-30.42l-6.58,16.14h-16.14l30.84-72.46h14.59l30.84,72.46h-16.55ZM188.61,153.47l-9.56,23.33h19.12l-9.56-23.33Z"></path>
    <path d="M246.16,206.92v-12.03l39.57-46.05h-38.34v-13.88h58.69v12.03l-39.57,46.05h39.57v13.88h-59.92Z"></path>
    <path d="M331.37,206.92v-71.95h54.27v14.08h-38.54v14.59h33.92v14.08h-33.92v15.11h39.06v14.08h-54.78Z"></path>
    <path d="M410.52,206.92v-71.95h15.83v57.56h35.87v14.39h-51.7Z"></path>
  </g>
</svg>