<?xml version="1.0" encoding="UTF-8"?>
<svg xmlns="http://www.w3.org/2000/svg" viewBox="0 0 630.17 71.47">
  <g fill="#ffffff">
    <path d="M185.5,14.13v15.26h34.2v14.33h-34.2v27.75h-15.77V-.2h54.57v14.33h-38.81Z"></path>
    <path d="M247.14,71.47V-.2h54.06v14.03h-38.39v14.54h33.79v14.03h-33.79v15.05h38.91v14.03h-54.57Z"></path>
    <path d="M379.17,71.47l-6.51-15.96h-30.09l-6.51,15.96h-15.96L350.6-.2h14.43l30.5,71.67h-16.37ZM357.62,18.61l-9.45,23.08h18.91l-9.45-23.08Z"></path>
    <path d="M414.95,71.47v-11.98l39.42-45.87h-38.19V-.2h58.46v11.98l-39.42,45.87h39.42v13.82h-59.69Z"></path>
    <path d="M499.83,71.47V-.2h54.06v14.03h-38.4v14.54h33.79v14.03h-33.79v15.05h38.91v14.03h-54.57Z"></path>
    <path d="M578.67,71.47V-.2h15.77v57.34h35.73v14.33h-51.5Z"></path>
  </g>
  <g fill="#ffffff">
    <polygon points="27.04 34.87 62.89 34.87 35.85 71.47 0 71.47 27.04 34.87"></polygon>
    <polygon points="89.58 0 53.73 0 106.54 71.47 142.39 71.47 89.58 0"></polygon>
    <polygon points="62.89 34.87 27.04 34.87 54.09 71.47 89.93 71.47 62.89 34.87"></polygon>
  </g>
</svg>